<?xml version="1.0" encoding="UTF-8"?>
<svg width="27px" height="26px" viewBox="0 0 27 26" version="1.1" xmlns="http://www.w3.org/2000/svg" xmlns:xlink="http://www.w3.org/1999/xlink">
    <title>Group 10</title>
    <defs>
        <polygon id="path-1" points="0.277085956 0.160572414 8.80847608 0.160572414 8.80847608 2.4951931 0.277085956 2.4951931"></polygon>
    </defs>
    <g id="Page-1" stroke="none" stroke-width="1" fill="none" fill-rule="evenodd">
        <g id="specs_integration_general" transform="translate(-917.000000, -1011.000000)">
            <g id="Group-10" transform="translate(917.000000, 1011.000000)">
                <path d="M23.6231145,13.8852409 L23.6231145,16.2665055 L23.6231145,19.8646977 C23.6231145,20.2633869 23.6349806,20.6620761 23.5814307,21.0581211 C23.5963395,20.9576408 23.6112483,20.8545163 23.6231145,20.7540361 C23.5665219,21.138329 23.462769,21.5085194 23.3082045,21.8672516 C23.3468456,21.7752916 23.3885294,21.6836254 23.4268662,21.5916654 C23.272606,21.9389392 23.0763578,22.2659408 22.8387301,22.5644435 L23.0258505,22.3320462 C22.7882228,22.627611 22.5119539,22.8943831 22.2058676,23.1238424 L22.4465379,22.9431542 C22.1343663,23.1726135 21.7987666,23.3650538 21.4391303,23.5113671 C21.5343639,23.4740543 21.6292933,23.4338034 21.7245269,23.3964906 C21.3560671,23.545742 20.9696558,23.6462222 20.5716827,23.7005756 C20.6754356,23.6861793 20.7825354,23.6720768 20.8865926,23.6603247 C20.2655963,23.7378884 19.617825,23.7005756 18.9937861,23.7005756 L15.4400197,23.7005756 L11.0784408,23.7005756 L7.35824371,23.7005756 C6.81757223,23.7005756 6.27659649,23.7035136 5.73896762,23.7005756 C5.53085322,23.7005756 5.32578142,23.6861793 5.12070963,23.6603247 C5.22476683,23.674721 5.33186664,23.6891173 5.43592384,23.7005756 C5.03764643,23.6462222 4.65427779,23.545742 4.28307959,23.3964906 C4.37800896,23.4338034 4.4732426,23.4740543 4.56817198,23.5113671 C4.20853569,23.3621158 3.86989339,23.1726135 3.5607644,22.9431542 L3.80173897,23.1238424 C3.49565258,22.8943831 3.21907949,22.627611 2.98145179,22.3320462 L3.1685722,22.5644435 C2.9309445,22.2632966 2.73195792,21.9389392 2.58043603,21.5916654 C2.61907715,21.6836254 2.66076089,21.7752916 2.69909775,21.8672516 C2.54483751,21.5114574 2.44078031,21.138329 2.3841878,20.7540361 C2.39909658,20.8545163 2.41400536,20.9576408 2.42587153,21.0581211 C2.34554667,20.4584714 2.3841878,19.8329671 2.3841878,19.2303793 L2.3841878,15.7990667 L2.3841878,11.5871223 L2.3841878,7.99480618 C2.3841878,7.47272016 2.38144945,6.95034035 2.3841878,6.43119235 C2.3841878,6.23023183 2.39909658,6.03220934 2.42587153,5.83448064 C2.41096275,5.9346671 2.39605397,6.03808537 2.3841878,6.13856563 C2.44078031,5.75397892 2.54483751,5.38378849 2.69909775,5.02535015 C2.66076089,5.11701635 2.61907715,5.20897635 2.58043603,5.30064255 C2.73500053,4.95366248 2.9309445,4.62636714 3.1685722,4.32815818 L2.98145179,4.5605555 C3.21907949,4.26499077 3.49565258,3.99821862 3.80173897,3.76846552 L3.5607644,3.9494475 C3.872936,3.7196944 4.20853569,3.52754794 4.56817198,3.38123459 C4.4732426,3.41854743 4.37800896,3.45879829 4.28307959,3.49611114 C4.65123518,3.34685976 5.03764643,3.2463795 5.43592384,3.19202615 C5.33186664,3.20612864 5.22476683,3.22052493 5.12070963,3.23198321 C5.48034592,3.18615011 5.84272056,3.19202615 6.20539946,3.19202615 L7.78299182,3.19202615 L11.6367594,3.19202615 L12.5492376,3.19202615 C13.1702339,3.19202615 13.7671937,2.66406409 13.7376804,2.04414203 C13.7078628,1.42157576 13.214656,0.896551724 12.5492376,0.896551724 L10.2967947,0.896551724 L6.65114156,0.896551724 L5.76574257,0.896551724 C4.8444408,0.896551724 3.96208442,1.10897051 3.1390589,1.49913947 C1.22251998,2.39993616 0.0103448679,4.38544956 0.00121704329,6.42531631 C-0.00152130411,6.82723734 0.00121704329,7.22886457 0.00121704329,7.63342982 L0.00121704329,10.5943656 L0.00121704329,14.3185988 L0.00121704329,17.8130788 L0.00121704329,20.0882809 L0.00121704329,20.4614094 C0.0042596515,21.4253735 0.265619697,22.3866934 0.764911706,23.2243227 C1.77810024,24.9286676 3.70954794,25.990174 5.73896762,25.9986942 C6.19931424,26.0016322 6.65996513,25.9986942 7.12061601,25.9986942 L10.2581536,25.9986942 L14.12683,25.9986942 L17.7012861,25.9986942 L19.9564673,25.9986942 C20.0872995,25.9986942 20.22087,26.0016322 20.3517021,25.9986942 C21.4123553,25.9787157 22.4909599,25.6831509 23.3763589,25.1152318 C24.2380256,24.5643532 24.9810305,23.8010558 25.4176448,22.8914451 C25.7921899,22.1111072 26,21.2934564 26,20.4296788 L26,17.8762463 L26,14.4878287 L26,13.888179 C26,13.2885292 25.4535476,12.7117961 24.8115572,12.7405886 C24.1668285,12.7661494 23.6231145,13.2424023 23.6231145,13.8852409" id="Fill-1" fill="#333333"></path>
                <g id="Group-5" transform="translate(17.034483, 0.000000)">
                    <mask id="mask-2" fill="white">
                        <use xlink:href="#path-1"></use>
                    </mask>
                    <g id="Clip-4"></g>
                    <path d="M1.40775973,2.4951931 L3.52882759,2.4951931 L6.90680311,2.4951931 L7.6778376,2.4951931 C8.26811568,2.4951931 8.83583537,1.95815862 8.80749277,1.32788276 C8.77915017,0.694618391 8.31034038,0.160572414 7.6778376,0.160572414 L5.55676974,0.160572414 L2.17879422,0.160572414 L1.40775973,0.160572414 C0.817481646,0.160572414 0.249761958,0.697308046 0.278104561,1.32788276 C0.306157953,1.96114713 0.774967742,2.4951931 1.40775973,2.4951931" id="Fill-3" fill="#333333" mask="url(#mask-2)"></path>
                </g>
                <path d="M26,7.77731307 L26,5.54832208 L26,1.99847005 L26,1.18820417 C26,0.56789184 25.3812967,-0.0287142844 24.6551724,0.00107043298 C23.9256052,0.0308551504 23.3103448,0.52351869 23.3103448,1.18820417 L23.3103448,3.41719516 L23.3103448,6.96704719 L23.3103448,7.77731307 C23.3103448,8.3976254 23.9287039,8.99423153 24.6551724,8.96444681 C25.3847397,8.93496602 26,8.44230248 26,7.77731307" id="Fill-6" fill="#333333"></path>
                <path d="M14.474844,13.126144 L15.5957031,12.00485 L18.2664528,9.33306405 C19.3422116,8.25688787 20.4179704,7.18071168 21.4963311,6.10193255 L24.297178,3.29999896 C24.7487596,2.84824212 25.2090144,2.39908823 25.655103,1.94154705 L25.6747622,1.9218803 C26.0928076,1.50367263 26.1237418,0.735512469 25.6747622,0.323089132 C25.2231805,-0.0919371583 24.5229688,-0.123172586 24.0768802,0.323089132 L22.956021,1.44438316 L20.2852713,4.11645834 C19.2095125,5.19234531 18.1337537,6.2685215 17.055393,7.34758985 L14.2545461,10.1492342 C13.8029645,10.6012803 13.3427097,11.0501449 12.8966211,11.5076861 L12.876962,11.5276421 C12.4589165,11.9455606 12.4279823,12.7137207 12.876962,13.126144 C13.3285436,13.5385674 14.0287553,13.5724058 14.474844,13.126144" id="Fill-8" fill="#333333"></path>
            </g>
        </g>
    </g>
</svg>